# AST/ASF file generated using VICON BodyLanguage
# -----------------------------------------------
:version 1.10
:name VICON
:units
  mass 1.0
  length 0.45
  angle deg
:documentation
   .ast/.asf automatically generated from VICON data using
   VICON BodyBuilder and BodyLanguage model FoxedUp or BRILLIANT.MOD
:root
   order TX TY TZ RX RY RZ
   axis XYZ
   position 0 0 0  
   orientation 0 0 0 
:bonedata
  begin
     id 1 
     name lhipjoint
     direction 0.635376 -0.686425 0.353719 
     length 2.47244 
     axis 0 0 0  XYZ
  end
  begin
     id 2 
     name lfemur
     direction 0.34202 -0.939693 0  
     length 7.25268  
     axis 0 0 20  XYZ
    dof rx ry rz
    limits (-160.0 20.0)
           (-70.0 70.0)
           (-60.0 70.0)
  end
  begin
     id 3 
     name ltibia
     direction 0.34202 -0.939693 0   
     length 7.6767   
     axis 0 0 20   XYZ
    dof rx
    limits (-10.0 170.0)
  end
  begin
     id 4 
     name lfoot
     direction 0.0803374 -0.220725 0.972022   
     length 2.22945   
     axis -90 7.62852e-016 20   XYZ
    dof rx rz
    limits (-45.0 90.0)
           (-70.0 20.0)
  end
  begin
     id 5 
     name ltoes
     direction 1.53579e-011 -4.21994e-011 1   
     length 1.11848   
     axis -90 7.62852e-016 20   XYZ
    dof rx
    limits (-90.0 20.0)
  end
  begin
     id 6 
     name rhipjoint
     direction -0.664428 -0.664335 0.342336   
     length 2.55466  
     axis 0 0 0  XYZ 
  end
  begin
     id 7 
     name rfemur
     direction -0.34202 -0.939693 0   
     length 6.83172   
     axis 0 0 -20   XYZ
    dof rx ry rz
    limits (-160.0 20.0)
           (-70.0 70.0)
           (-70.0 60.0)
  end
  begin
     id 8 
     name rtibia
     direction -0.34202 -0.939693 0   
     length 7.62692   
     axis 0 0 -20   XYZ
    dof rx
    limits (-10.0 170.0)
 end
 begin
     id 9 
     name rfoot
     direction -0.0949276 -0.260811 0.960711   
     length 2.19684  
     axis -90 -7.62852e-016 -20   XYZ
    dof rx rz
    limits (-45.0 90.0)
           (-20.0 70.0)
  end
  begin
     id 10 
     name rtoes
     direction -1.53543e-011 -4.2183e-011 1   
     length 1.09848   
     axis -90 -7.62852e-016 -20   XYZ
    dof rx
    limits (-90.0 20.0)
  end
  begin
     id 11 
     name lowerback
     direction 0.0118782 0.999815 -0.0151555   
     length 2.15772   
     axis 0 0 0   XYZ
    dof rx ry rz
    limits (-20.0 45.0)
           (-30.0 30.0)
           (-30.0 30.0)
  end
  begin
     id 12 
     name upperback
     direction 0.00130825 0.999065 0.0432113   
     length 2.14863   
     axis 0 0 0   XYZ
    dof rx ry rz
    limits (-20.0 45.0)
           (-30.0 30.0)
           (-30.0 30.0)
  end
  begin
     id 13 
     name thorax
     direction -0.00347005 0.998773 0.0494011   
     length 2.14936   
     axis 0 0 0   XYZ
    dof rx ry rz
    limits (-20.0 45.0)
           (-30.0 30.0)
           (-30.0 30.0)
  end
  begin
     id 14 
     name lowerneck
     direction -0.0262159 0.99424 0.103921   
     length 1.69373   
     axis 0 0 0   XYZ
    dof rx ry rz
    limits (-20.0 45.0)
           (-30.0 30.0)
           (-30.0 30.0)
  end
  begin
     id 15 
     name upperneck
     direction 0.0353511 0.977394 -0.20845   
     length 1.70857   
     axis 0 0 0   XYZ
    dof rx ry rz
    limits (-20.0 45.0)
           (-30.0 30.0)
           (-30.0 30.0)
  end
  begin
     id 16
     name head
     direction 0.0139214 0.996594 -0.0812836  
     length 1.72777  
     axis 0 0 0   XYZ
    dof rx ry rz
    limits (-20.0 45.0)
           (-30.0 30.0)
           (-30.0 30.0)
  end
  begin
     id 17 
     name lclavicle
     direction 0.841247 0.537205 -0.0609508  
     length 3.55371  
     axis 0 0 0   XYZ
    dof ry rz
    limits (-20.0 10.0)
           (0.0 20.0)
  end
  begin
     id 18 
     name lhumerus
     direction 1 -4.48964e-011 1.60116e-018   
     length 4.91377   
     axis -180 -30 -90   XYZ
    dof rx ry rz
    limits (-60.0 90.0)
           (-90.0 90.0)
           (-90.0 90.0)
  end
  begin
     id 19
     name lradius
     direction 1 -4.48989e-011 -8.93847e-027   
     length 3.00291   
     axis -180 -30 -90   XYZ
    dof rx
    limits (-10.0 170.0)
  end
  begin
     id 20
     name lwrist
     direction 1 -4.48932e-011 -7.31504e-027   
     length 1.50145   
     axis 5.74121e-015 90 90   XYZ
    dof ry
    limits (-180.0 0.0)
 end
  begin
     id 21 
     name lhand
     direction 1 -4.48971e-011 -1.46301e-026   
     length 0.450922   
     axis 9.33524e-015 90 90   XYZ
    dof rx rz
    limits (-90.0 90.0)
           (-45.0 45.0)
  end
  begin
     id 22 
     name lfingers
     direction 1 -4.49039e-011 -2.92602e-026   
     length 0.363545   
     axis 1.86705e-014 90 90   XYZ
    dof rx
    limits (0.0 90.0)
  end
  begin
     id 23
     name lthumb
     direction 0.707107 -6.34941e-011 0.707107   
     length 0.52198   
     axis -90 45 2.85299e-015   XYZ
    dof rx rz
    limits (-45.0 45.0)
           (-45.0 45.0)
  end
  begin
     id 24 
     name rclavicle
     direction -0.825079 0.56158 -0.0622297   
     length 3.39909  
     axis 0 0 0   XYZ 
    dof ry rz
    limits (-10.0 20.0)
           (-20.0 0.0)
  end
  begin
     id 25 
     name rhumerus
     direction -1 -4.48965e-011 1.61691e-027  
     length 4.86725   
     axis -180 30 90   XYZ
    dof rx ry rz
    limits (-90.0 60.0)
           (-90.0 90.0)
           (-90.0 90.0)
  end
  begin
     id 26 
     name rradius
     direction -1 -4.48964e-011 -2.25776e-027   
     length 3.17144   
     axis -180 30 90   XYZ
    dof rx
    limits (-10.0 170.0)
  end
  begin
     id 27 
     name rwrist
     direction -1 -4.48961e-011 -7.31504e-027   
     length 1.58572   
     axis 5.74121e-015 -90 -90   XYZ
    dof ry
    limits (-180.0 0.0)
  end
  begin
     id 28
     name rhand
     direction -1 -4.49013e-011 -1.46301e-026   
     length 0.419368   
     axis 9.33524e-015 -90 -90   XYZ
    dof rx rz
    limits (-90.0 90.0)
           (-45.0 45.0)
  end
  begin
     id 29
     name rfingers
     direction -1 -4.489e-011 -2.92602e-026   
     length 0.338105   
     axis 1.86705e-014 -90 -90   XYZ
    dof rx
    limits (0.0 90.0)
  end
  begin
     id 30
     name rthumb
     direction -0.707107 -6.35022e-011 0.707107   
     length 0.485453   
     axis -90 -45 -2.85299e-015   XYZ
    dof rx rz
    limits (-45.0 45.0)
           (-45.0 45.0)
  end
:hierarchy
  begin
    root lhipjoint rhipjoint lowerback
    lhipjoint lfemur
    lfemur ltibia
    ltibia lfoot
    lfoot ltoes
    rhipjoint rfemur
    rfemur rtibia
    rtibia rfoot
    rfoot rtoes
    lowerback upperback
    upperback thorax
    thorax lowerneck lclavicle rclavicle
    lowerneck upperneck
    upperneck head
    lclavicle lhumerus
    lhumerus lradius
    lradius lwrist
    lwrist lhand lthumb
    lhand lfingers
    rclavicle rhumerus
    rhumerus rradius
    rradius rwrist
    rwrist rhand rthumb
    rhand rfingers
  end

#!OML:ASF H:\Swim 2\Project 1\Capture day 1\Session 1\male.ASF
:FULLY-SPECIFIED
:DEGREES
58
root 7.71189 9.72094 12.1735 98.9233 -1.03953 1.83667
lowerback -5.66702 1.47994 3.73168
upperback -3.45585 1.84332 -3.88002
thorax -0.152188 0.856518 -6.02759
lowerneck -12.9059 -2.68514 -2.75406
upperneck 50.5424 -3.64748 2.12296
head 24.8898 -1.46396 1.04433
rclavicle -1.74931e-014 7.42958e-015
rhumerus 122.711 -19.6839 -57.0695
rradius 19.7203
rwrist 7.47091
rhand -11.2965 -21.7264
rfingers 7.12502
rthumb 14.7348 -51.1827
lclavicle -1.74931e-014 7.42958e-015
lhumerus 122.29 11.4041 64.0327
lradius 14.5461
lwrist -46.6911
lhand -27.2963 -10.4162
lfingers 7.12502
lthumb -0.706275 19.5624
rfemur -28.0958 8.84055 19.6873
rtibia 20.0379
rfoot 20.7616 -10.4963
rtoes 1.26644
lfemur -28.0567 -7.68791 -21.3962
ltibia 32.8798
lfoot 8.69764 6.59932
ltoes 16.8906
59
root 7.7128 9.72214 12.1798 98.9175 -1.05412 1.92236
lowerback -5.67514 1.52288 3.66051
upperback -3.423 1.90535 -3.89681
thorax -0.106817 0.891026 -5.99978
lowerneck -12.8822 -2.87057 -2.84389
upperneck 50.5848 -3.83792 2.02926
head 24.9417 -1.54782 0.969085
rclavicle -1.59028e-015 1.53561e-014
rhumerus 122.95 -19.1432 -57.6267
rradius 19.354
rwrist 8.53845
rhand -11.4218 -21.5593
rfingers 7.12502
rthumb 14.6141 -51.0244
lclavicle -1.59028e-015 1.53561e-014
lhumerus 123.137 8.14647 68.5204
lradius 13.5617
lwrist -57.3752
lhand -30.2992 -9.82303
lfingers 7.12502
lthumb -3.6064 20.1262
rfemur -28.3121 9.03389 19.539
rtibia 19.4899
rfoot 20.3279 -11.2498
rtoes 1.10224
lfemur -27.7036 -7.57103 -21.4934
ltibia 32.9822
lfoot 8.82641 6.5182
ltoes 16.8844
60
root 7.7133 9.72429 12.1856 98.8962 -1.06081 2.01915
lowerback -5.66306 1.54183 3.63558
upperback -3.38796 1.93303 -3.92169
thorax -0.0735135 0.906986 -6.00967
lowerneck -12.8391 -2.97765 -2.84169
upperneck 50.609 -3.95583 1.95033
head 24.9519 -1.59036 0.898466
rclavicle 1.51076e-014 -2.11209e-015
rhumerus 123.036 -18.8606 -57.9365
rradius 19.1467
rwrist 8.95002
rhand -11.4464 -21.4725
rfingers 7.12502
rthumb 14.5904 -50.9393
lclavicle 1.51076e-014 -2.11209e-015
lhumerus 123.698 4.87151 73.0282
lradius 12.7215
lwrist -69.135
lhand -33.7795 -7.99163
lfingers 7.12502
lthumb -6.96673 21.8737
rfemur -28.4683 9.14404 19.4474
rtibia 19.0287
rfoot 19.9823 -11.8482
rtoes 0.905249
lfemur -27.3969 -7.44295 -21.5851
ltibia 33.1126
lfoot 8.96498 6.42626
ltoes 16.5529
61
root 7.71335 9.72723 12.1903 98.8667 -1.06293 2.12367
lowerback -5.63886 1.5485 3.64443
upperback -3.35451 1.94273 -3.95874
thorax -0.0496511 0.91296 -6.05329
lowerneck -12.7784 -3.01986 -2.74185
upperneck 50.6283 -4.02787 1.89573
head 24.939 -1.59844 0.831699
rclavicle 3.18055e-015 -1.82882e-014
rhumerus 122.901 -18.9299 -57.8864
rradius 19.1361
rwrist 8.71222
rhand -11.4195 -21.4695
rfingers 7.12502
rthumb 14.6164 -50.9344
lclavicle 3.18055e-015 -1.82882e-014
lhumerus 123.98 1.4711 77.7529
lradius 12.0678
lwrist -81.9548
lhand -37.444 -4.80609
lfingers 7.12502
lthumb -10.503 24.9115
rfemur -28.5739 9.16425 19.4143
rtibia 18.6788
rfoot 19.7373 -12.2603
rtoes 0.704617
lfemur -27.1521 -7.30583 -21.673
ltibia 33.274
lfoot 9.1857 6.28991
ltoes 16.1542
62
root 7.71289 9.7307 12.1937 98.8367 -1.0641 2.23155
lowerback -5.61448 1.56658 3.66051
upperback -3.32604 1.96767 -4.01132
thorax -0.0283168 0.926397 -6.11663
lowerneck -12.6946 -3.03006 -2.5519
upperneck 50.6557 -4.11424 1.89531
head 24.9233 -1.59048 0.775127
rclavicle 8.74653e-015 4.34841e-015
rhumerus 122.478 -19.427 -57.3864
rradius 19.3418
rwrist 7.89235
rhand -11.3609 -21.537
rfingers 7.12502
rthumb 14.6728 -50.9978
lclavicle 8.74653e-015 4.34841e-015
lhumerus 123.929 -2.3704 83.166
lradius 11.6568
lwrist -96.9709
lhand -41.0017 1.10946
lfingers 7.12502
lthumb -13.9333 30.6226
rfemur -28.64 9.08839 19.4392
rtibia 18.4607
rfoot 19.5929 -12.4587
rtoes 0.515601
lfemur -26.9818 -7.16408 -21.7584
ltibia 33.4643
lfoot 9.48816 6.10807
ltoes 16.2153
